<?xml version="1.0" encoding="UTF-8" standalone="no"?>
<svg
   xmlns:dc="http://purl.org/dc/elements/1.1/"
   xmlns:cc="http://creativecommons.org/ns#"
   xmlns:rdf="http://www.w3.org/1999/02/22-rdf-syntax-ns#"
   xmlns:svg="http://www.w3.org/2000/svg"
   xmlns="http://www.w3.org/2000/svg"
   xmlns:sodipodi="http://sodipodi.sourceforge.net/DTD/sodipodi-0.dtd"
   xmlns:inkscape="http://www.inkscape.org/namespaces/inkscape"
   viewBox="0 0 22.163849 32.077752"
   height="32.077751"
   width="22.163849"
   id="svg885"
   version="1.1"
   sodipodi:docname="marker.svg"
   inkscape:version="0.92.3 (unknown)">
  <sodipodi:namedview
     pagecolor="#ffffff"
     bordercolor="#666666"
     borderopacity="1"
     objecttolerance="10"
     gridtolerance="10"
     guidetolerance="10"
     inkscape:pageopacity="0"
     inkscape:pageshadow="2"
     inkscape:window-width="1853"
     inkscape:window-height="1025"
     id="namedview821"
     showgrid="false"
     inkscape:zoom="2.8284271"
     inkscape:cx="-32.031782"
     inkscape:cy="98.746389"
     inkscape:window-x="67"
     inkscape:window-y="27"
     inkscape:window-maximized="1"
     inkscape:current-layer="svg885" />
  <metadata
     id="metadata891">
    <rdf:RDF>
      <cc:Work
         rdf:about="">
        <dc:format>image/svg+xml</dc:format>
        <dc:type
           rdf:resource="http://purl.org/dc/dcmitype/StillImage" />
        <dc:title></dc:title>
      </cc:Work>
    </rdf:RDF>
  </metadata>
  <defs
     id="defs889" />
  <path
     id="path895"
     d="m -0.20481678,-32.067469 c -6.12035052,6e-5 -11.08185822,4.96157 -11.08192522,11.08192 0.006,4.36783 2.5770447,8.32474 6.5657057,10.104791 L 0.00210722,0.01028153 4.7690712,-11.09657 c 3.740005,-1.87849 6.1027088,-5.703729 6.1080358,-9.888979 -6.9e-5,-6.12035 -4.9615748,-11.08185 -11.08192378,-11.08192 z m 0.206924,5.07978 c 3.31488698,10e-6 6.00213198,2.68726 6.00213998,6.00214 -9e-6,3.31489 -2.687253,6.00213 -6.00213998,6.002139 -3.31488452,-9e-6 -6.00212852,-2.687249 -6.00213752,-6.002139 9e-6,-3.31488 2.687253,-6.00213 6.00213752,-6.00214 z"
     style="fill:#000000;fill-opacity:1;stroke:#1a1a1a;stroke-width:0;stroke-miterlimit:4;stroke-dasharray:none;stroke-opacity:1"
     inkscape:connector-curvature="0"
     sodipodi:nodetypes="cccccccccccc" />
</svg>
